<?xml version="1.0" standalone="no"?><!DOCTYPE svg PUBLIC "-//W3C//DTD SVG 1.1//EN" "http://www.w3.org/Graphics/SVG/1.1/DTD/svg11.dtd"><svg t="1670982532173" class="icon" viewBox="0 0 1024 1024" version="1.1" xmlns="http://www.w3.org/2000/svg" p-id="4344" xmlns:xlink="http://www.w3.org/1999/xlink" width="200" height="200"><path d="M542.165333 670.165333L640 572.330667l97.834667 97.834666 60.330666-60.330666L700.330667 512l97.834666-97.834667-60.330666-60.330666L640 451.669333l-97.834667-97.834666-60.330666 60.330666L579.669333 512l-97.834666 97.834667z" fill="" p-id="4345"></path><path d="M308.522667 795.349333c8.149333 9.685333 20.138667 15.317333 32.810666 15.317334h554.666667a42.666667 42.666667 0 0 0 42.666667-42.666667V256a42.666667 42.666667 0 0 0-42.666667-42.666667H341.333333c-12.672 0-24.661333 5.632-32.810666 15.317334l-213.333334 256c-13.184 15.829333-13.184 38.826667 0 54.656l213.333334 256.042666zM361.344 298.666667H853.333333v426.666666H361.344l-177.792-213.333333 177.792-213.333333z" fill="" p-id="4346"></path></svg>